<?xml version="1.0" encoding="UTF-8"?>
<svg xmlns="http://www.w3.org/2000/svg" viewBox="0 0 1549 775" width="1549" height="775">
<path d="M379.5 242.24C385.73 245.9 381.7 252.6 378.94 257.4C373.39 267.05 367.78 276.99 363.88 287.45C362.6 290.9 360.6 294.56 360.5 298.17C366.63 291.43 372.94 284.96 380.98 280.48C384.98 278.25 389.07 276.06 393.31 278.5C396.73 286.4 382.82 292.71 377.34 296.89C368.45 303.66 356.59 313.8 351.17 323.67C348.73 328.11 347.44 333.53 345.77 338.31C344.24 342.7 342.11 346.98 341.08 351.5C343.44 350.26 345.3 347.7 347.14 345.65C354.17 337.82 362.44 328.02 373.72 334.5C368.58 343.52 349.37 356.98 340.73 364.22C338.29 366.26 335.16 368.19 333.08 370.58C331.2 372.74 330.23 375.88 328.92 378.41C326.43 383.2 323.51 387.79 320.9 392.5C324.81 391.4 328.56 387.84 332.06 385.54C338.41 381.35 345.15 377.37 352.33 374.79C357.51 372.93 363.93 370.72 366.5 377.01C365.57 383.4 352.67 388.08 347.19 390.66C338.36 394.82 329.55 399.01 320.79 403.31C317.57 404.89 313.68 406.19 310.82 408.35C306.35 411.75 302.78 417.38 298.93 421.5C302.59 421.52 306.25 419.55 309.81 418.39C314.88 416.76 320.19 415.4 325.47 414.71C330.09 414.1 334.72 413.81 336.89 418.5C335.61 424.58 328.87 425.21 323.5 426.06C315.49 427.33 307.47 428.53 299.44 429.68C295.94 430.17 292.06 430.26 288.67 431.27C284.66 432.47 273.69 442.18 268.44 444.95C264.09 447.24 260.4 449.85 258.77 443.5C260.89 440.37 264.54 439.27 267.77 437.31C273.2 433.99 280.21 429.69 283.67 424.2C289.51 414.94 292.58 402.92 294.64 392.3C295.54 387.7 295.35 382.68 297.49 378.5C300.01 377.2 301.49 377.02 304.24 377.5C306.97 385.82 303.67 395.44 300.83 403.37C299.94 405.87 298.65 408.21 298.5 410.83C304.66 404.27 309.55 396.38 314.22 388.72C316.12 385.6 318.95 382.02 319.79 378.41C320.81 374.08 320.31 368.92 320.17 364.5C319.89 355.1 318.61 345.86 317.84 336.5C317.51 332.37 317.69 327.95 322.64 327.5C329.49 332.9 329.69 351.55 328.5 359.61C331.72 357.02 332.93 350.88 334.39 346.82C335.89 342.66 338.41 337.87 338.98 333.48C340.03 325.38 336.19 309.12 334.72 300.55C333.58 293.93 329.77 279.89 336.5 275.97C341.85 277.19 342.37 281.59 343.2 286.47C344.77 295.79 344.99 304.84 345.5 314.25C348.85 308.31 349.46 300.26 351.28 293.68C354.72 281.22 358.57 268.88 365.11 257.63C368.49 251.8 372.22 243.36 379.5 242.24ZM572.5 385.34C560.84 408.35 557.38 447.42 590.5 452.98C596.14 453.93 601.82 453.63 607.46 452.74C628.62 449.41 648.6 434.72 661.94 418.42C666.51 412.84 669.47 403.65 674.7 399.16C680.14 394.48 694.92 392.35 699.84 398.69C700.94 400.1 701.16 401.7 700.84 403.44C700.38 405.99 691.86 417.79 689.95 421.42C682.63 435.34 676.26 449.68 669.29 463.77C665.96 470.5 659.26 481.56 658.03 488.5C675.4 491.8 692.87 493.91 709.14 501.39C714.51 503.86 724.26 509.74 719.5 516.7C718.35 516.92 717.73 517.34 716.5 517.27C714.22 517.13 711.39 515.13 709.24 514.33C705.03 512.75 700.76 511.42 696.43 510.18C681.35 505.87 665.14 503.47 649.5 502.62C643.14 509.29 638.63 517.93 632.4 524.88C615.16 544.13 590.88 558.91 564.5 559.27C551.8 559.44 534.89 556.73 528.44 544.07C521.31 530.08 531.63 515.36 542.96 507.48C560.74 495.1 583.2 489.86 604.5 488.01C612.82 487.28 621.22 487.53 629.5 486.75C634.58 478.38 638.84 469.37 642.98 460.5C644.63 456.95 647.6 452.87 647.5 449.08C619.64 470.27 567.28 485.87 542.35 452.16C539.24 447.96 536.88 443.27 535.26 438.3C533.21 432.02 532.53 425.08 532.75 418.5C533.21 404.72 537.31 392.13 542.49 379.5C537.63 376.16 531.27 374.49 526.04 371.47C513.63 364.29 503.67 352.9 501.17 338.46C499.49 328.81 501.79 318.88 507.37 310.84C510.45 306.41 514.01 303.16 519.5 304.45C522.88 309.41 515.55 318.79 516.19 326.49C517.73 344.99 534.69 356.74 550.5 362.75C553.5 359.85 555.26 355.63 557.65 352.18C562.94 344.56 568.66 337.26 574.96 330.45C602.41 300.75 640.27 277.51 680.48 270.8C701.02 267.37 731.75 266.95 742.91 288.59C753.9 309.89 734.78 332.97 719.67 346.14C691.18 370.98 651.58 383 614.46 385.6C605.5 386.23 596.48 386.25 587.5 385.88C582.48 385.67 577.48 384.81 572.5 385.34ZM581.27 369.5C589.81 372.73 603.35 371.48 612.5 371C644.94 369.3 675.68 356.63 700.67 336.12C711.13 327.55 730.23 306.56 722.54 291.93C714.66 276.95 687.9 283.32 675.34 287.8C639.61 300.54 598.5 335.51 581.27 369.5ZM173.5 305.89C180.07 306.39 186.66 309.24 192.81 311.61C222.39 323.02 241.25 347.89 231.16 380.5C234.78 386.25 239.55 391.45 243.42 397.1C247.43 402.92 250.84 409.15 254.08 415.42C256.44 419.96 260.42 425.44 259.5 430.64C253.32 433.55 252.38 425.88 250.18 421.34C244.13 408.88 236.56 396.51 227.49 386C224.55 382.6 219.64 383.57 215.5 382.97C209.62 382.11 203.49 380.05 198.22 377.32C179.44 367.61 169.92 347.03 169.89 326.5C169.88 319.68 170.25 312 173.5 305.89ZM279.8 314.46C292.72 312.84 296.49 332.89 283.48 334.97C268.74 337.33 265.75 316.22 279.8 314.46ZM282.5 358.37C285.22 361.41 285.8 366.51 286.28 370.49C288.97 392.66 276.2 397.65 260.5 407.2C258.95 404.78 259.24 401.8 258.56 398.83C253.9 378.38 263.46 365.35 282.5 358.37ZM1016.79 423.97C1014.47 431.62 1012.14 439.27 1009.82 446.92C1005.9 449.81 1002.38 453.9 998.85 457.35C990.44 465.55 980.25 473.68 968.5 476.17C961.06 477.74 951.38 476.5 946.64 469.83C942.73 464.32 943.02 456.63 944.83 450.44C948.58 437.65 957.03 425.75 963.99 414.5C967.19 409.32 972.88 402.39 971.5 396.15C964.32 392.84 953.51 403.21 948.31 407.84C934.98 419.74 924.66 434.05 916.3 449.76C913.6 454.85 911.27 460.21 908.93 465.47C908.03 467.49 907.56 470 906.38 471.86C902.64 477.74 888.04 476.76 885.44 470.11C883.83 465.98 885.97 461.71 885.5 457.73C878.07 464.73 868.77 472.83 858.47 474.9C844.53 477.7 832.64 470.88 833.89 455.5C835.48 436.1 852.85 417.23 861.85 400.5C856.4 399.87 850.95 399.25 845.5 398.62C830.87 422.43 818.15 450.43 794.91 467.43C785.17 474.55 767.5 481.2 760.15 467.33C758.05 463.36 757.98 459.14 757.5 454.79C749.69 461.54 743.43 470.1 733.13 473.57C715.07 479.66 698.49 470.47 699.05 450.5C699.79 424.44 722.43 394.22 745.59 383.11C758.02 377.14 776.85 372.88 784.5 387.86C786.37 385.71 787.64 383.21 790.08 381.58C796.83 377.08 809.22 376.95 812.46 385.5C811.19 390.94 806.97 395.82 804.36 400.82C798.13 412.71 791.89 424.89 786.79 437.3C784.32 443.31 779.45 451.27 782.97 457.5C790.65 459.33 797.79 451.25 802.35 445.82C810.85 435.68 818.26 424.81 824.91 413.38C828.57 407.07 833.06 400.52 835.13 393.5C833 391.06 830.97 388.64 830.24 385.39C827.75 374.3 835.39 359.27 847.77 358.5C849.29 358.4 850.87 358.71 852.28 359.24C864.9 363.9 854.61 378.62 853.22 386.5C864.76 389.83 872.66 381.06 881.45 384.04C891.08 387.31 889.63 398.1 885.62 405.14C878.68 417.34 869.65 428.31 863.51 441.02C861.06 446.1 857.34 451.93 860.5 457.32C868.35 460.7 878.44 450.3 883.57 445.07C890.56 437.95 898.1 430.37 903.38 421.85C906.96 416.08 909.64 409.07 912.36 402.84C914.15 398.74 916.42 394.43 917.55 390.1C918.11 387.94 917.68 385.28 918.82 383.33C922.73 376.68 942.83 375.64 943.74 385.55C944.36 392.18 938.31 397.85 938.5 404.06C948.63 393.86 960.31 382.92 974.45 378.85C981.75 376.76 991.35 377.71 995.74 384.75C999.28 390.42 998.66 397.78 996.31 403.76C991.56 415.84 983.06 426.85 976.5 438.01C973.12 443.77 967.69 451.8 970.5 458.54C976.29 461.67 981.67 457.29 986.49 454C994.81 448.31 1001.86 440.53 1008.57 433.09C1011.3 430.07 1013.62 426.49 1016.79 423.97ZM411.69 379.42C424.47 378.09 426.34 397.69 413.47 398.78C400.62 399.86 399.32 380.71 411.69 379.42ZM230.3 416.5C227.29 419.95 223.02 421.37 218.59 422.29C199.09 426.35 182.48 411.18 176.97 393.5C194.33 384.16 228.84 393.97 230.3 416.5ZM767.65 391.39C761.66 391.98 756.1 396.41 751.91 400.4C741.83 410 733.51 422.08 728.58 435.13C726.54 440.53 721.94 453.96 729.01 457.47C735.57 460.73 743.65 453.79 747.97 449.47C757.97 439.47 765 428.33 771.17 415.66C773 411.9 775.31 407.99 776.46 403.95C778.33 397.42 775.02 390.65 767.65 391.39ZM372.8 414.4C384.26 411.98 387.14 429.38 375.88 431.44C365.34 433.36 362.37 416.6 372.8 414.4ZM620.69 501.5C614.33 499.95 606.52 501.55 600.06 502.52C586.34 504.57 571.62 507.24 560.15 515.62C553.31 520.61 545.26 529.67 549.62 538.87C554 548.12 567.68 546.65 575.5 544C595.07 537.38 610.34 518.59 620.69 501.5Z" fill="#739120" fill-rule="evenodd" stroke="#739120" stroke-width="0.25" stroke-linejoin="round"/>
<path d="M291.76 262.33C302.67 258.81 307.14 276.39 296.3 278.7C286 280.89 282.04 265.47 291.76 262.33ZM1009.82 446.92C1012.14 439.27 1014.47 431.62 1016.79 423.97C1028.58 406.48 1040.28 389.54 1060.53 381.08C1072.67 376.01 1084.51 375.74 1093.5 386.11C1097.12 379.74 1099.52 372.61 1102.43 365.89C1108.81 351.12 1115.37 336.46 1122.52 322.04C1124.72 317.62 1126.52 312.83 1129.08 308.61C1133.36 301.57 1150.4 297.16 1155.75 304.75C1158.18 308.2 1155.57 311.32 1153.79 314.29C1149.34 321.7 1145.33 329.35 1141.61 337.14C1127.28 367.15 1114.46 397.68 1102.09 428.53C1099.24 435.62 1096.6 443.02 1094.96 450.5C1094.08 454.49 1093.66 457.8 1097.06 460.5C1105.09 461.27 1111.78 453.79 1117.06 448.54C1124.13 441.51 1132.22 433.52 1137.51 425.02C1142.55 416.92 1146.25 407.44 1150.36 398.82C1154.35 390.43 1156.87 381.81 1166.94 379.47C1170.43 378.66 1174.5 378.42 1177.97 379.53C1190.22 383.44 1179.66 394.17 1176.2 400.7C1169.08 414.18 1162.38 427.81 1156.4 441.85C1153.96 447.58 1150.72 454.77 1154.34 460.5C1164.6 463.95 1178.19 448.02 1184.62 441.13C1194.81 430.2 1203.51 417.97 1212.63 406.17C1218.28 398.86 1224.3 391.71 1229.66 384.18C1231.23 381.98 1232.15 379.4 1233.58 377.09C1238.14 369.76 1245.63 364.06 1254.5 363.68C1260.84 363.41 1269.86 367.13 1265.47 374.99C1263.81 377.96 1260.14 378.3 1257.44 379.96C1252.69 382.88 1250.71 388.09 1250.92 393.5C1251.36 404.87 1259.79 414.45 1263.73 424.73C1267.09 433.5 1265.92 441.26 1265.5 450.22C1275.71 444.38 1291.53 429.31 1297.64 419.18C1300.71 414.09 1302.77 408.11 1305.19 402.68C1307.01 398.62 1309.38 394.74 1310.69 390.5C1307.24 389.3 1305.03 388.93 1303.27 385.5C1304.17 377.21 1310.17 379.56 1316.5 378.64C1321.85 373.2 1326.79 361.54 1331.15 354.67C1341.19 338.87 1352.11 323.18 1366.23 310.71C1374.21 303.66 1389.39 295.31 1398.88 304.62C1408.55 314.12 1397.9 329.99 1391.8 338.28C1383.73 349.25 1373.82 359.22 1363.36 367.9C1358.22 372.17 1353.02 376.23 1347.51 380.01C1345.31 381.53 1342.09 382.82 1340.31 384.8C1338.22 387.12 1331.11 404.08 1330.35 407.5C1333.68 405.13 1336.45 401.76 1339.51 399C1347.69 391.61 1357.51 384.22 1368.5 381.98C1376.55 380.33 1385.63 381.81 1389.62 389.84C1392.99 396.6 1391.06 404.06 1388.07 410.54C1382.31 423.03 1373.76 434.06 1368.18 446.64C1365.63 452.39 1361.39 464.8 1370.13 467.4C1375.38 468.96 1381.76 466.32 1386.3 463.79C1398.29 457.1 1407.13 445.17 1414.18 433.69C1415.94 430.82 1420.34 420.04 1422.11 418.65C1423.26 417.75 1424.17 417.92 1425.5 417.67C1429.01 420.29 1428.54 423.66 1427.19 427.62C1424.74 434.81 1420.83 441.8 1416.52 448.02C1403.29 467.11 1374.67 494.42 1349.21 481.34C1340.46 476.85 1338.02 467.71 1338.87 458.5C1340.19 444.27 1349.97 430.6 1357.14 418.65C1360.19 413.56 1366.51 405.44 1363.99 399.5C1355.3 397.25 1345.42 406.34 1339.42 411.92C1328.01 422.53 1318.25 434.9 1311.51 448.99C1309.2 453.8 1307.17 458.75 1305.32 463.75C1304.06 467.14 1303.34 471.8 1301.16 474.69C1296.28 481.17 1281.38 479.41 1279.47 471.07C1277.74 463.49 1283.61 455.76 1284.74 448.5C1280.51 451.04 1276.68 455.12 1272.56 458.06C1267.89 461.4 1262.42 463.08 1257.63 466.12C1254.26 468.25 1251.57 471.46 1248.13 473.61C1240.29 478.5 1230.65 480.53 1221.5 480.58C1211.47 480.64 1198.76 477.48 1193.16 468.32C1186.05 456.7 1195.65 440.4 1209.98 444.51C1214.24 445.74 1216.75 449.95 1214.63 454.18C1212.66 458.13 1206.21 462.41 1213.76 466.73C1223.42 472.25 1234.23 462.34 1237.49 454C1244.5 436.07 1233.29 418.59 1230.5 400.97C1224.34 404.6 1218.53 415.45 1213.88 421.33C1199.28 439.79 1182.9 464.07 1161.28 474.78C1150.62 480.06 1134.79 481.25 1128.9 468.56C1126.73 463.89 1127.39 459.09 1126.5 454.23C1116.66 463.33 1107.13 474.62 1093.44 477.82C1085.18 479.75 1075.89 477.71 1072.06 469.44C1070.34 465.74 1070.1 461.76 1069.5 457.81C1063.31 462.94 1058.16 469.44 1051.01 473.51C1036.64 481.71 1015.67 480.01 1010.69 461.7C1009.37 456.85 1009.82 451.86 1009.82 446.92ZM1387.36 315.5C1381.38 314.08 1377.26 319.79 1373.85 324.31C1366.92 333.51 1360.87 343.84 1355.54 354.05C1353.6 357.77 1349.91 362.73 1349.5 366.75C1361.06 357.04 1371.88 345.42 1380.51 333.03C1383.79 328.33 1388.75 321.38 1387.36 315.5ZM1192.76 320.42C1205.33 318.75 1213.49 329.42 1209.6 341.17C1206.65 350.1 1195.7 356.3 1186.58 354.76C1176.61 353.07 1172.65 342.34 1176.09 333.6C1178.8 326.7 1185.39 321.39 1192.76 320.42ZM418.59 332.5C430.68 332.24 430.8 351.17 418.5 351.2C406.27 351.23 406.44 332.75 418.59 332.5ZM160.85 386.5C160.35 391.69 156.22 391.5 151.94 393.44C144.48 396.82 131.34 403.82 134.47 414.09C136.69 421.37 145.29 425.74 151.43 429.04C168.52 438.23 188.55 442.67 207.46 446.18C266.24 457.09 339.18 457.09 397.64 444.29C413.59 440.8 430.12 436.85 444.62 429.1C450.1 426.17 455.69 423.07 459.41 417.91C466.73 407.76 454.79 399.05 446.61 394.88C443.28 393.19 438.16 392.85 438.5 388.38C442.14 385.84 445.66 388.35 449.5 390.01C457.57 393.49 467.29 397.64 471.43 406.06C477.26 417.92 468.14 428.08 458.9 434.42C442.25 445.82 422.09 451.68 402.7 456.34C366.34 465.08 328.88 468.35 291.5 467.9C254.84 467.45 217.88 464.28 182.28 455.34C165.44 451.11 146.75 445.57 132.99 434.51C129.51 431.72 126.09 428.56 123.69 424.77C114.89 410.89 125.82 399.39 137.52 393C140.98 391.1 155.06 384.74 158.47 385.07C159.75 385.2 159.97 385.75 160.85 386.5ZM1074.79 392.38C1058.45 397.12 1043.43 423.05 1038.63 438.21C1036.88 443.74 1033.25 456.99 1040.18 460.34C1047.22 463.74 1055.05 456.67 1059.62 452.12C1071.21 440.6 1077.51 427.65 1083.12 412.55C1084.24 409.53 1085.92 406.36 1086.58 403.19C1088.27 395.06 1082.66 390.1 1074.79 392.38ZM469.87 434.5C468.58 441.88 464.05 449.33 460.28 455.76C452.03 469.82 442.12 482.57 430.34 493.85C371.96 549.77 279.75 556.92 208.88 522.61C181.87 509.54 157.76 488.2 141.47 463.02C137.84 457.41 128.37 443.74 128.5 437.67C131.74 440.19 134.8 443.03 138.24 445.3C165.08 463.07 205.96 470.73 237.5 474.19C302.81 481.36 382.22 478.35 443.24 451.69C448.96 449.19 454.81 446.06 459.86 442.38C463.19 439.96 466.39 436.41 469.87 434.5Z" fill="#de7463" fill-rule="evenodd" stroke="#de7463" stroke-width="0.25" stroke-linejoin="round"/>
</svg>