<?xml version="1.0" standalone="no"?>
<!DOCTYPE svg PUBLIC "-//W3C//DTD SVG 20010904//EN"
 "http://www.w3.org/TR/2001/REC-SVG-20010904/DTD/svg10.dtd">
<svg version="1.0" xmlns="http://www.w3.org/2000/svg"
 width="473.000000pt" height="425.000000pt" viewBox="0 0 473.000000 425.000000"
 preserveAspectRatio="xMidYMid meet">
<g transform="translate(0.000000,425.000000) scale(0.100000,-0.100000)"
fill="#ff6b00" stroke="none">
<path d="M2231 4075 c-310 -55 -591 -235 -737 -473 l-41 -67 -104 -6 c-128 -8
-207 -22 -307 -56 -356 -119 -622 -401 -714 -756 -28 -108 -30 -318 -5 -422
63 -255 206 -454 438 -608 152 -101 300 -152 496 -172 60 -7 61 -7 71 -43 72
-265 155 -583 203 -777 62 -255 100 -352 152 -389 20 -15 48 -22 100 -24 91
-5 158 16 387 123 299 139 541 228 810 299 180 47 240 59 541 111 269 45 336
65 365 109 33 52 18 115 -184 777 l-78 257 61 6 c211 22 417 138 548 308 61
80 126 209 152 303 22 79 31 302 16 391 -66 386 -347 696 -722 795 -99 27
-292 32 -374 11 l-50 -13 -47 45 c-63 60 -185 141 -274 182 -40 19 -126 48
-191 65 -102 27 -139 31 -273 35 -107 2 -181 -1 -239 -11z m463 -279 c145 -43
255 -106 358 -204 128 -122 198 -244 233 -407 6 -29 7 -29 21 -11 8 11 24 45
36 75 19 47 23 75 23 174 l0 117 75 0 c173 0 347 -81 476 -223 129 -141 185
-287 185 -481 0 -196 -61 -346 -196 -482 -63 -63 -98 -90 -165 -122 -88 -44
-195 -75 -292 -86 l-57 -7 68 68 c71 71 147 189 158 245 6 32 6 32 -14 18 -12
-8 -41 -31 -65 -52 -142 -119 -432 -275 -673 -363 -72 -26 -131 -48 -132 -48
-1 -1 107 -2 240 -2 133 0 272 -4 309 -8 l68 -9 10 -41 c61 -233 172 -563 241
-718 47 -105 49 -133 12 -152 -28 -14 -119 -37 -228 -57 -134 -25 -430 -106
-648 -177 -256 -83 -413 -142 -695 -262 -103 -44 -200 -82 -215 -85 -24 -4
-27 -2 -27 22 1 39 18 64 81 115 169 137 458 298 731 406 128 50 381 123 563
162 55 11 104 25 109 29 33 32 -332 33 -544 0 -331 -50 -698 -178 -907 -317
l-61 -41 -27 107 c-28 115 -74 267 -137 459 -22 68 -38 125 -37 126 2 2 46 22
97 45 52 22 173 88 269 146 115 70 202 115 254 132 101 33 87 46 -56 51 -107
4 -129 -1 -398 -98 -386 -138 -785 -35 -992 255 -58 81 -103 180 -122 269 -21
101 -18 254 6 348 73 281 322 506 618 558 115 21 309 9 408 -25 122 -41 213
-93 284 -163 l64 -62 -7 42 c-17 111 -127 267 -242 343 -63 42 -63 43 14 133
98 115 274 222 429 261 116 30 117 30 268 26 117 -2 155 -7 229 -29z"/>
</g>
</svg>
