<?xml version="1.0" encoding="UTF-8"?>
<svg xmlns="http://www.w3.org/2000/svg" viewBox="0 0 1549 775" width="1549" height="775">
<path d="M379.5 242.24C385.73 245.92 381.71 252.59 378.94 257.41C373.78 266.39 368.57 275.61 364.74 285.26C363.87 287.44 360.84 293.44 360.88 295.49C360.89 296.06 361.42 296.53 361.5 297.1C367.26 290.46 373.83 284.29 381.63 280.11C385.52 278.03 389.26 276.16 393.32 278.5C394.21 280.55 394.58 281.99 393.61 284.16C392.05 287.68 379.38 295.26 375.69 298.16C367.38 304.69 356.3 314.36 351.17 323.68C348.73 328.12 347.45 333.54 345.78 338.31C344.27 342.66 341.73 347.1 341.5 351.63C346.64 346.41 355.68 334.19 362.77 332.39C366.24 331.51 370.72 332.96 373.74 334.5C368.02 343.7 349.69 356.73 340.74 364.23C338.29 366.27 335.17 368.19 333.08 370.59C331.21 372.75 330.24 375.89 328.93 378.41C326.44 383.21 323.51 387.78 320.92 392.5C324.83 391.36 328.55 387.83 332.05 385.53C338.4 381.35 345.15 377.36 352.33 374.78C358.06 372.72 364 370.39 366.59 377.5C363.63 384.71 350.62 388.95 343.74 392.27C336.09 395.96 328.42 399.58 320.79 403.32C317.58 404.9 313.68 406.19 310.83 408.36C306.36 411.75 302.79 417.38 298.94 421.5C302.59 421.51 306.25 419.54 309.8 418.38C315.48 416.55 321.69 414.8 327.66 414.43C331.34 414.2 338.08 414.8 336.66 420.25C335.56 424.51 327.99 425.36 324.5 425.93C316.17 427.3 307.8 428.5 299.45 429.69C295.95 430.18 292.07 430.27 288.67 431.28C284.66 432.47 273.7 442.19 268.44 444.96C264.08 447.25 260.41 449.86 258.76 443.5C261.49 439.47 267.4 437.8 271.44 434.96C281.29 428.02 284.13 424.33 288.59 413.16C291.4 406.1 293.42 398.94 294.79 391.46C295.44 387.93 294.99 382.42 296.93 379.38C298.61 376.73 301.68 377.03 304.26 377.5C307.57 387.78 302.29 400 298.42 409.5C302.75 407.91 306.55 400.71 309.21 396.72C312.43 391.88 318.48 383.94 319.78 378.4C321.51 371.04 320.37 358.89 319.39 351.34C318.64 345.51 314.27 328.17 322.69 327.5C330.91 334.08 327.53 350.39 329.5 359.52C332.03 353.34 338.18 339.54 338.97 333.48C340.05 325.12 336.01 308 334.45 299.16C333.28 292.62 329.65 279.94 336.5 275.96C341.86 277.19 342.38 281.58 343.21 286.47C344.78 295.77 345.18 304.81 345.5 314.23C349.04 306.86 350.32 297.66 352.32 289.68C355.09 278.62 359.37 267.49 365.1 257.63C368.49 251.79 372.21 243.36 379.5 242.24ZM291.76 262.33C302.67 258.79 307.16 276.39 296.3 278.7C285.99 280.9 282.02 265.48 291.76 262.33ZM572.5 385.35C561 408.4 557.26 447.4 590.5 452.97C596.15 453.91 601.82 453.61 607.45 452.73C628.61 449.41 648.61 434.72 661.94 418.42C666.5 412.83 669.47 403.64 674.69 399.15C680.14 394.47 694.92 392.35 699.85 398.68C701.27 400.51 701.28 402.75 700.33 404.79C697.65 410.56 692.96 415.72 689.96 421.43C682.63 435.34 676.27 449.69 669.3 463.77C666.14 470.15 659.17 482.09 658.05 488.5C675.41 491.75 692.9 493.91 709.15 501.39C714.41 503.81 724.05 509.54 719.73 516.5C718.46 516.8 717.86 517.3 716.5 517.27C714.54 517.23 703.4 512.21 700.28 511.29C688.03 507.68 675.19 505.21 662.5 503.81C658.71 503.39 653.19 501.71 649.53 502.91C647.12 503.7 645.27 508.33 643.88 510.34C639.55 516.59 634.8 522.55 629.49 527.99C611.56 546.33 587.77 559.91 561.5 559.25C550.27 558.97 536.94 556.34 529.95 546.54C520.33 533.06 530.24 516.68 541.79 508.32C559.75 495.33 582.73 489.89 604.5 488C612.82 487.27 621.22 487.52 629.5 486.74C634.56 478.36 638.84 469.36 642.97 460.49C644.62 456.95 647.59 452.87 647.5 449.09C619.68 470.34 567.25 485.83 542.35 452.17C539.24 447.97 536.87 443.28 535.25 438.31C533.2 432.03 532.52 425.09 532.74 418.5C533.2 404.72 537.31 392.14 542.47 379.5C537.61 376.17 531.26 374.5 526.03 371.47C513.62 364.3 503.66 352.9 501.16 338.46C499.48 328.8 501.79 318.88 507.36 310.84C510.47 306.36 514.04 303.12 519.56 304.5C522.9 309.5 515.53 318.49 516.2 326.49C517.74 344.99 534.69 356.73 550.5 362.73C553.49 359.84 555.26 355.62 557.65 352.17C562.93 344.55 568.65 337.26 574.95 330.45C602.43 300.75 640.26 277.5 680.48 270.79C701.02 267.36 731.76 266.94 742.92 288.58C752.04 306.29 739.51 326.31 727.41 338.92C699.12 368.39 655.81 382.35 616.02 385.5C606.54 386.25 596.99 386.27 587.5 385.89C582.57 385.69 577.38 384.55 572.5 385.35ZM581.28 369.5C589.86 372.71 603.33 371.47 612.5 370.99C644.94 369.29 675.67 356.62 700.67 336.12C711.12 327.55 730.22 306.56 722.53 291.94C714.66 276.96 687.9 283.33 675.35 287.8C640.01 300.39 598.32 335.92 581.28 369.5ZM1154.36 460.5C1164.6 463.93 1178.2 448 1184.61 441.12C1194.8 430.19 1203.51 417.97 1212.63 406.16C1218.27 398.85 1224.29 391.7 1229.65 384.18C1231.22 381.98 1232.15 379.39 1233.58 377.09C1238.13 369.75 1245.63 364.05 1254.5 363.67C1260.84 363.4 1269.88 367.14 1265.48 375C1263.81 377.97 1260.15 378.3 1257.45 379.96C1252.7 382.88 1250.72 388.09 1250.93 393.5C1251.36 404.86 1259.79 414.45 1263.74 424.73C1267.09 433.47 1265.98 441.24 1265.5 450.19C1275.13 444.8 1291.9 428.67 1297.63 419.17C1300.56 414.31 1302.56 408.6 1304.86 403.41C1306.74 399.18 1309.55 394.99 1310.67 390.5C1306.69 389.22 1300.82 387.03 1304.23 381.74C1307.59 376.52 1314.82 381.66 1318.18 376.66C1321.83 371.23 1324.63 365.18 1328.03 359.59C1338.72 342.03 1350.72 324.39 1366.23 310.7C1374.17 303.69 1388.58 295.69 1398.34 304.12C1408.75 313.12 1397.9 329.99 1391.8 338.29C1382.08 351.51 1369.85 362.38 1357.34 372.87C1353.11 376.41 1343.2 381.6 1340.32 384.81C1338.75 386.56 1338.14 389.48 1337.13 391.59C1334.72 396.64 1331.34 402.05 1330.5 407.57C1341.35 397.21 1353.24 385.1 1368.5 381.97C1376.55 380.32 1385.64 381.81 1389.63 389.84C1393 396.61 1391.07 404.06 1388.08 410.55C1382.32 423.03 1373.77 434.06 1368.18 446.65C1365.63 452.4 1361.4 464.8 1370.14 467.39C1375.38 468.95 1381.76 466.31 1386.3 463.78C1398.45 456.99 1407.51 444.78 1414.55 433.06C1416.2 430.31 1420.38 419.99 1422.11 418.64C1423.25 417.74 1424.17 417.91 1425.5 417.66C1429.02 420.29 1428.55 423.66 1427.2 427.62C1424.75 434.81 1420.84 441.81 1416.52 448.03C1403.31 467.08 1374.53 494.35 1349.2 481.35C1340.45 476.86 1338.01 467.7 1338.86 458.5C1340.18 444.27 1349.97 430.6 1357.13 418.64C1360.18 413.56 1366.51 405.44 1363.97 399.5C1355.29 397.28 1345.42 406.35 1339.43 411.93C1328.02 422.54 1318.25 434.9 1311.51 449C1308.76 454.76 1306.42 460.69 1304.26 466.69C1303.4 469.07 1302.9 471.96 1301.58 474.12C1297.15 481.33 1281.42 479.61 1279.47 471.08C1277.67 463.26 1284.09 455.93 1284.5 448.41C1279.53 452.98 1274.21 457.48 1268.32 460.82C1264.89 462.77 1260.96 464.03 1257.64 466.13C1254.47 468.13 1251.91 471.16 1248.73 473.24C1241.1 478.23 1231.52 480.4 1222.5 480.58C1211.64 480.8 1197.93 477.48 1192.44 467.08C1186.38 455.6 1195.57 442.48 1208.47 444.17C1213.12 444.78 1216.61 448.61 1215 453.44C1214.31 455.49 1212.01 456.64 1211.07 458.61C1209.06 462.87 1212.28 466.98 1216.57 467.7C1218.17 467.96 1219.88 467.97 1221.49 467.8C1223.52 467.59 1225.59 466.86 1227.4 465.92C1246.05 456.25 1239.16 431.77 1234.28 416.3C1232.99 412.21 1231.71 403.65 1229.5 400.91C1210.86 425.1 1193.32 452.63 1168.08 470.57C1157.4 478.16 1137.73 484.54 1129.57 469.92C1126.75 464.86 1127.47 459.66 1126.5 454.25C1116.66 463.34 1107.13 474.62 1093.44 477.83C1085.18 479.77 1075.88 477.71 1072.05 469.44C1070.33 465.75 1070.09 461.77 1069.5 457.83C1063.27 462.92 1058.17 469.44 1051.02 473.52C1037.59 481.18 1017.69 480.64 1011.45 464.08C1009.31 458.41 1010.13 452.59 1009.5 446.79C999.03 458.21 985.86 471.78 970.36 475.74C962.42 477.78 951.83 477.15 946.63 469.83C942.72 464.33 943.01 456.63 944.82 450.44C948.57 437.64 957.02 425.75 963.98 414.49C967.18 409.32 972.86 402.4 971.5 396.16C964.32 392.85 953.51 403.21 948.32 407.85C935 419.76 924.67 434.05 916.31 449.77C913.61 454.85 911.27 460.21 908.94 465.47C908.04 467.5 907.56 470.01 906.38 471.87C902.84 477.45 887.94 476.55 885.44 470.12C883.82 465.99 885.96 461.73 885.5 457.74C878.09 464.75 868.76 472.83 858.48 474.91C844.53 477.73 832.63 470.87 833.88 455.5C835.47 436.11 852.83 417.22 861.83 400.5C856.39 399.88 850.94 399.26 845.5 398.63C830.89 422.44 818.15 450.45 794.92 467.44C785.17 474.56 767.5 481.22 760.14 467.34C758.04 463.36 757.97 459.14 757.5 454.8C749.71 461.56 743.43 470.11 733.14 473.58C715.07 479.67 698.47 470.48 699.04 450.5C699.78 424.43 722.43 394.22 745.59 383.1C757.99 377.15 776.89 372.86 784.5 387.86C790.14 381.34 793.84 377.47 803.5 378.84C807.44 379.4 812.73 381.76 812.34 386.5C812.06 389.92 806.17 397.38 804.36 400.83C798.14 412.72 791.9 424.89 786.79 437.31C784.32 443.31 779.46 451.27 782.98 457.5C790.66 459.31 797.78 451.24 802.34 445.81C810.84 435.67 818.26 424.81 824.9 413.38C828.56 407.07 833.05 400.52 835.11 393.5C832.99 391.06 830.96 388.64 830.23 385.4C827.75 374.31 835.37 359.26 847.77 358.49C849.29 358.39 850.86 358.7 852.29 359.23C864.91 363.93 854.61 378.58 853.24 386.5C864.75 389.79 872.72 381.05 881.45 384.03C891.08 387.31 889.64 398.1 885.63 405.14C878.68 417.35 869.66 428.32 863.52 441.03C861.07 446.11 857.36 451.92 860.5 457.32C868.37 460.68 878.42 450.3 883.56 445.06C890.55 437.94 898.1 430.36 903.37 421.84C906.95 416.07 909.63 409.07 912.36 402.83C914.15 398.73 916.41 394.42 917.54 390.08C918.11 387.91 917.68 385.27 918.83 383.3C922.73 376.66 942.84 375.66 943.76 385.55C944.37 392.18 938.33 397.84 938.5 404.05C948.78 393.71 960.75 382.42 975.24 378.63C982.84 376.65 992.73 378.26 996.45 386.04C999.93 393.31 997.78 401.05 994.38 407.84C988.48 419.59 980.53 430.25 974.4 441.88C972.38 445.7 965 458.9 973.53 459.85C981.05 460.68 993.74 448.39 998.85 443.35C1005.94 436.38 1013.28 428.73 1019.16 420.69C1021.3 417.76 1022.9 414.45 1024.96 411.45C1032.51 400.42 1042.97 389.52 1055.1 383.58C1068.39 377.06 1082.71 373.65 1093.5 386.09C1097.11 379.73 1099.52 372.6 1102.42 365.89C1108.8 351.12 1115.36 336.45 1122.52 322.03C1124.71 317.61 1126.52 312.83 1129.08 308.61C1133.36 301.57 1150.41 297.14 1155.75 304.74C1158.18 308.2 1155.58 311.32 1153.79 314.3C1149.36 321.71 1145.33 329.35 1141.61 337.15C1127.42 366.9 1114.44 397.13 1102.37 427.8C1099.47 435.17 1096.67 442.75 1094.97 450.5C1094.34 453.37 1093.38 457.33 1095.83 459.67C1098.2 461.93 1102.07 460.3 1104.46 458.98C1111.18 455.28 1116.8 449.05 1121.98 443.49C1127.25 437.82 1133.41 431.6 1137.5 425.02C1140.21 420.66 1142.22 415.59 1144.48 410.98C1147.94 403.93 1153.06 389.74 1157.82 384.3C1162.29 379.2 1171.76 377.53 1177.98 379.52C1190.23 383.43 1179.66 394.18 1176.21 400.7C1169.08 414.18 1162.38 427.82 1156.41 441.86C1153.97 447.59 1150.73 454.77 1154.36 460.5ZM173.5 305.87C179.13 306.31 184.62 308.57 189.93 310.52C210.37 318.06 228.24 331 232.89 353.53C234.07 359.25 234.36 365.11 233.47 370.9C233.06 373.61 230.73 378.48 231.52 381.07C232.43 384.08 236.58 387.49 238.43 390.1C244.66 398.89 250.19 407.81 255.11 417.4C257.2 421.47 260.17 425.8 259.66 430.5C253.31 433.71 252.45 426.04 250.17 421.35C244.14 408.89 236.54 396.52 227.49 386.01C224.55 382.61 219.63 383.58 215.5 382.98C209.62 382.12 203.48 380.07 198.21 377.33C179.43 367.6 169.91 347.04 169.88 326.5C169.87 319.68 170.23 311.99 173.5 305.87ZM279.79 314.45C292.73 312.84 296.51 332.9 283.48 334.98C268.73 337.35 265.74 316.21 279.79 314.45ZM1387.34 315.5C1381 314 1376.45 320.67 1373 325.49C1366.82 334.15 1361.37 343.41 1356.24 352.71C1353.89 356.96 1351.98 361.4 1349.39 365.5C1353.65 364.49 1357.44 359.35 1360.69 356.19C1369.09 348.03 1377.18 338.78 1383.24 328.73C1385.59 324.84 1388.45 320.07 1387.34 315.5ZM1192.75 320.41C1205.34 318.73 1213.49 329.42 1209.6 341.18C1206.66 350.11 1195.69 356.3 1186.57 354.76C1177.02 353.15 1172.77 343.02 1175.79 334.42C1178.34 327.13 1185.04 321.43 1192.75 320.41ZM414.76 333.31C426.38 328.91 433.54 345.26 422.72 350.27C410.54 355.92 403.5 337.58 414.76 333.31ZM282.5 358.36C284.81 361.61 285.63 365.51 286.18 369.5C287.61 379.83 284.88 390.35 276.83 397.36C273.34 400.41 269.35 401.67 265.38 403.87C263.65 404.82 262.18 406.18 260.5 407.21C258.94 404.79 259.23 401.82 258.55 398.85C253.79 378.04 263.5 365.69 282.5 358.36ZM411.69 379.42C424.46 378.1 426.3 397.7 413.47 398.79C400.61 399.87 399.3 380.7 411.69 379.42ZM160.86 386.5C160.35 391.71 156.24 391.5 151.94 393.45C144.49 396.81 131.36 403.83 134.48 414.08C136.69 421.35 145.3 425.74 151.44 429.04C168.54 438.21 188.55 442.66 207.46 446.17C266.26 457.08 339.16 457.08 397.63 444.28C413.58 440.79 430.11 436.85 444.61 429.09C450.09 426.16 455.69 423.07 459.41 417.9C466.7 407.76 454.79 399.05 446.61 394.89C443.25 393.19 438.14 392.86 438.5 388.37C442.14 385.84 445.67 388.34 449.5 389.99C457.58 393.48 467.29 397.64 471.44 406.05C477.28 417.91 468.15 428.1 458.9 434.42C442.25 445.82 422.1 451.69 402.71 456.34C366.33 465.07 328.89 468.36 291.5 467.9C254.83 467.46 217.88 464.28 182.27 455.35C165.43 451.12 146.75 445.57 132.98 434.52C129.5 431.73 126.09 428.57 123.68 424.78C114.87 410.9 125.8 399.39 137.51 392.99C140.98 391.1 155.06 384.73 158.47 385.07C159.75 385.19 159.98 385.75 160.86 386.5ZM230.32 416.5C227.31 419.96 223.03 421.37 218.6 422.3C199.09 426.37 182.48 411.19 176.96 393.5C180.2 391.75 183.86 391.36 187.5 390.85C201.68 388.85 216.23 392.56 225.13 404.33C227.99 408.12 230 411.73 230.32 416.5ZM767.67 391.4C761.67 391.99 756.12 396.41 751.91 400.41C741.83 410.01 733.52 422.1 728.59 435.14C726.55 440.52 721.96 453.96 729.01 457.46C735.57 460.72 743.64 453.78 747.97 449.46C760.42 437.01 769.43 421.79 775.88 405.42C778.49 398.79 775.9 390.57 767.67 391.4ZM1074.8 392.39C1068.89 394.1 1063.73 398.78 1059.62 403.14C1050.35 413 1042.73 425.29 1038.64 438.22C1036.89 443.75 1033.25 456.99 1040.19 460.33C1047.22 463.72 1055.05 456.65 1059.62 452.12C1071.2 440.6 1077.5 427.64 1083.11 412.55C1084.23 409.52 1085.92 406.35 1086.58 403.19C1088.26 395.07 1082.65 390.11 1074.8 392.39ZM372.8 414.39C384.25 411.96 387.16 429.39 375.9 431.45C365.34 433.37 362.35 416.61 372.8 414.39ZM469.5 434.36C469.39 441.21 464.13 449.27 460.64 455.16C451.24 471.06 440 485.34 426.17 497.65C361.71 555.04 257.03 558.78 187.01 509.5C167.54 495.79 151.49 478.87 138.76 458.74C135.46 453.51 128.37 443.53 128.5 437.65C131.55 440.04 134.45 442.7 137.64 444.9C159.23 459.8 187 465.52 212.27 470.39C265.66 480.67 331.3 480.43 384.52 469.14C414.03 462.87 446.85 455.71 469.5 434.36ZM620.67 501.5C613.71 500.35 606.34 501.63 599.37 502.65C585.89 504.61 571.4 507.41 560.15 515.62C553.32 520.61 545.27 529.67 549.62 538.86C554 548.12 567.69 546.64 575.5 544C595.29 537.3 609.98 518.55 620.67 501.5Z" fill="#000000" fill-rule="evenodd" stroke="#000000" stroke-width="0.25" stroke-linejoin="round"/>
</svg>